<?xml version="1.0" encoding="UTF-8"?>
<svg version="1.1" xmlns="http://www.w3.org/2000/svg" width="61" height="62">
<path d="M0 0 C7.28974263 4.18376358 12.7216122 9.95020775 15.83203125 17.828125 C18.33378546 27.83514183 16.98290696 36.3023332 12.0078125 45.20703125 C10.5 47.5 10.5 47.5 8.5 49.5 C5.4609375 49.6953125 5.4609375 49.6953125 1.875 49.625 C0.09222656 49.59792969 0.09222656 49.59792969 -1.7265625 49.5703125 C-3.09941406 49.53550781 -3.09941406 49.53550781 -4.5 49.5 C-3.74203125 48.92378906 -2.9840625 48.34757812 -2.203125 47.75390625 C0.19594598 45.75352481 1.91762735 43.94013528 3.75 41.4375 C4.25015625 40.76589844 4.7503125 40.09429687 5.265625 39.40234375 C8.70532956 34.10128007 7.99533986 27.55893968 7.5 21.5 C6.03554144 15.71678785 2.64349192 12.0049036 -2.23046875 8.6953125 C-8.33101626 5.48228748 -14.69452632 4.76103568 -21.33203125 6.6171875 C-27.66435526 9.19575547 -32.13164019 13.11833045 -34.8125 19.4375 C-37.24392027 26.73176081 -36.6562742 32.52894835 -33.5 39.5 C-30.73679553 43.62165136 -27.50524261 46.60203828 -23.5 49.5 C-34.85544895 50.71304499 -34.85544895 50.71304499 -38.62890625 47.9296875 C-44.92800499 39.62561246 -45.34393265 30.60582639 -44.5 20.5 C-42.53297261 12.37276107 -36.91490617 6.14829458 -30.4375 1.125 C-21.02005668 -4.08464949 -9.78430812 -4.53479268 0 0 Z " fill="#2461E5" transform="translate(44.5,12.5)"/>
<path d="M0 0 C6.53708714 4.61731004 11.67857682 10.95080346 13.59375 18.83203125 C13.89706368 23.52096237 13.8339446 28.14156444 13.59375 32.83203125 C13.26375 32.83203125 12.93375 32.83203125 12.59375 32.83203125 C12.58988281 31.84976563 12.58988281 31.84976563 12.5859375 30.84765625 C12.13079101 20.10619911 7.61207249 10.63541365 -0.15625 3.14453125 C-7.82686517 -1.32999427 -17.37922316 -1.11872015 -25.85546875 0.484375 C-31.8839373 2.08600918 -36.54559253 3.65767313 -40.26953125 8.82421875 C-41.93351424 11.76335022 -43.31345795 14.7710129 -44.546875 17.9140625 C-45.40625 19.83203125 -45.40625 19.83203125 -47.40625 21.83203125 C-46.13637719 12.37366822 -41.6508814 5.98361074 -34.2265625 0.0859375 C-23.9808102 -6.97175883 -10.47377529 -6.01115867 0 0 Z " fill="#1E50BD" transform="translate(47.40625,14.16796875)"/>
<path d="M0 0 C1.27423828 -0.00193359 1.27423828 -0.00193359 2.57421875 -0.00390625 C3.91419922 0.00189453 3.91419922 0.00189453 5.28125 0.0078125 C6.17457031 0.00394531 7.06789063 0.00007813 7.98828125 -0.00390625 C8.83777344 -0.00261719 9.68726563 -0.00132813 10.5625 0 C11.34689453 0.00112793 12.13128906 0.00225586 12.93945312 0.00341797 C14.78125 0.1328125 14.78125 0.1328125 15.78125 1.1328125 C15.90625 3.6328125 15.90625 3.6328125 15.78125 6.1328125 C14.22518249 7.68888001 12.72167629 7.26252019 10.5625 7.265625 C9.28826172 7.26755859 9.28826172 7.26755859 7.98828125 7.26953125 C6.64830078 7.26373047 6.64830078 7.26373047 5.28125 7.2578125 C4.38792969 7.26167969 3.49460937 7.26554688 2.57421875 7.26953125 C1.72472656 7.26824219 0.87523437 7.26695312 0 7.265625 C-0.78439453 7.26449707 -1.56878906 7.26336914 -2.37695312 7.26220703 C-4.21875 7.1328125 -4.21875 7.1328125 -5.21875 6.1328125 C-5.34375 3.6328125 -5.34375 3.6328125 -5.21875 1.1328125 C-3.66268249 -0.42325501 -2.15917629 0.00310481 0 0 Z " fill="#2461E7" transform="translate(25.21875,-0.1328125)"/>
<path d="M0 0 C0.02888514 3.14581423 0.04675923 6.29159469 0.0625 9.4375 C0.07087891 10.33533203 0.07925781 11.23316406 0.08789062 12.15820312 C0.09111328 13.01220703 0.09433594 13.86621094 0.09765625 14.74609375 C0.10289307 15.53685303 0.10812988 16.3276123 0.11352539 17.14233398 C0 19 0 19 -1 20 C-3.5 20.125 -3.5 20.125 -6 20 C-7 19 -7 19 -7.11352539 17.14233398 C-7.10828857 16.35157471 -7.10305176 15.56081543 -7.09765625 14.74609375 C-7.09443359 13.89208984 -7.09121094 13.03808594 -7.08789062 12.15820312 C-7.07951172 11.26037109 -7.07113281 10.36253906 -7.0625 9.4375 C-7.05798828 8.53580078 -7.05347656 7.63410156 -7.04882812 6.70507812 C-7.03700225 4.46998686 -7.0205222 2.23502563 -7 0 C-4.3333581 -1.33332095 -2.83319697 -0.67102033 0 0 Z " fill="#2460E5" transform="translate(34,24)"/>
<path d="M0 0 C2.54711004 1.2424927 3.8451618 2.03135787 5.5625 4.25 C5.85546875 6.73046875 5.85546875 6.73046875 5.75 9.4375 C5.72292969 10.33855469 5.69585937 11.23960938 5.66796875 12.16796875 C5.63316406 12.85503906 5.59835938 13.54210938 5.5625 14.25 C1.0103402 12.20102341 -2.44604622 9.24720118 -5.4375 5.25 C-5.5 2.375 -5.5 2.375 -4.4375 0.25 C-2.4375 -0.75 -2.4375 -0.75 0 0 Z " fill="#235FE1" transform="translate(55.4375,6.75)"/>
<path d="M0 0 C1.27423828 -0.00193359 1.27423828 -0.00193359 2.57421875 -0.00390625 C3.91419922 0.00189453 3.91419922 0.00189453 5.28125 0.0078125 C6.17457031 0.00394531 7.06789063 0.00007813 7.98828125 -0.00390625 C8.83777344 -0.00261719 9.68726563 -0.00132813 10.5625 0 C11.34689453 0.00112793 12.13128906 0.00225586 12.93945312 0.00341797 C14.78125 0.1328125 14.78125 0.1328125 15.78125 1.1328125 C15.82188832 2.79898365 15.823971 4.46669345 15.78125 6.1328125 C15.12125 5.4728125 14.46125 4.8128125 13.78125 4.1328125 C10.90782939 3.93424278 8.15263012 3.85452304 5.28125 3.8828125 C4.49621094 3.87507812 3.71117187 3.86734375 2.90234375 3.859375 C-1.63407251 3.68861353 -1.63407251 3.68861353 -5.21875 6.1328125 C-5.261471 4.46669345 -5.25938832 2.79898365 -5.21875 1.1328125 C-3.66268249 -0.42325501 -2.15917629 0.00310481 0 0 Z " fill="#1E51C0" transform="translate(25.21875,-0.1328125)"/>
<path d="M0 0 C0.33 0 0.66 0 1 0 C1.14695312 0.64066406 1.29390625 1.28132813 1.4453125 1.94140625 C3.51986667 9.94155481 6.99844376 15.42205938 14 20 C11.375 20.4375 11.375 20.4375 8 20 C4.23894963 16.87462012 1.16447325 12.77434032 0 8 C-0.1411103 5.30882499 -0.0914999 2.69924718 0 0 Z " fill="#1F52C4" transform="translate(7,42)"/>
<path d="M0 0 C2.79550051 0.54356954 4.5040419 1.33291259 6.22265625 3.64453125 C9.78307477 10.52290252 9.38794423 17.42431133 9 25 C8.67 25 8.34 25 8 25 C7.99742188 24.34515625 7.99484375 23.6903125 7.9921875 23.015625 C7.64704504 14.8702629 4.97307534 9.03189187 1 2 C0.67 1.34 0.34 0.68 0 0 Z " fill="#2056CB" transform="translate(52,22)"/>
<path d="M0 0 C0.33 0 0.66 0 1 0 C1.02708567 1.60407328 1.04643483 3.2082785 1.0625 4.8125 C1.07410156 5.70582031 1.08570313 6.59914063 1.09765625 7.51953125 C0.9150944 12.15660221 -0.75265077 13.93305906 -4 17 C-4.825 17.928125 -5.65 18.85625 -6.5 19.8125 C-7.325 20.534375 -8.15 21.25625 -9 22 C-11.15625 21.63671875 -11.15625 21.63671875 -13 21 C-12.46890625 20.6596875 -11.9378125 20.319375 -11.390625 19.96875 C-5.51910963 15.94011901 -2.10174796 11.98140745 -0.54296875 4.93359375 C-0.29512163 3.29780279 -0.13739548 1.64874581 0 0 Z " fill="#1E52C2" transform="translate(53,40)"/>
<path d="M0 0 C0 6.27 0 12.54 0 19 C-0.33 19 -0.66 19 -1 19 C-1.33 14.05 -1.66 9.1 -2 4 C-3.65 3.67 -5.3 3.34 -7 3 C-7 2.01 -7 1.02 -7 0 C-5 -1 -5 -1 0 0 Z " fill="#2159D4" transform="translate(34,24)"/>
<path d="M0 0 C2.1640625 0.3671875 2.1640625 0.3671875 4 1 C2.54782324 2.50596108 1.08807139 4.00462104 -0.375 5.5 C-1.18710938 6.3353125 -1.99921875 7.170625 -2.8359375 8.03125 C-5 10 -5 10 -7 10 C-5.61166236 5.58256205 -3.60286648 2.9166062 0 0 Z " fill="#225BD9" transform="translate(12,17)"/>
<path d="M0 0 C2.42102911 1.18098981 3.82068009 2.2331559 5.5625 4.25 C5.2325 4.91 4.9025 5.57 4.5625 6.25 C4.170625 5.755 3.77875 5.26 3.375 4.75 C1.62217762 3.01448703 1.62217762 3.01448703 -1 3 C-3.44296594 3.10539031 -3.44296594 3.10539031 -5.4375 4.25 C-5.0625 2.3125 -5.0625 2.3125 -4.4375 0.25 C-2.4375 -0.75 -2.4375 -0.75 0 0 Z " fill="#1D4DB8" transform="translate(55.4375,6.75)"/>
<path d="M0 0 C-0.33 0.99 -0.66 1.98 -1 3 C-2.98 3 -4.96 3 -7 3 C-7 2.01 -7 1.02 -7 0 C-4.3333581 -1.33332095 -2.83319697 -0.67102033 0 0 Z " fill="#1D4DB6" transform="translate(34,24)"/>
</svg>
